<svg xmlns="http://www.w3.org/2000/svg" viewBox="0 0 200 200" fill="none">
  <defs>
    <linearGradient id="gs-grad" x1="0%" y1="0%" x2="100%" y2="100%">
      <stop offset="0%" style="stop-color:#C4956A;stop-opacity:1" />
      <stop offset="100%" style="stop-color:#D4A57A;stop-opacity:1" />
    </linearGradient>
  </defs>
  <!-- Outer circle (the G) -->
  <path d="M100 16C53.6 16 16 53.6 16 100c0 46.4 37.6 84 84 84 46.4 0 84-37.6 84-84h-18c0 36.4-29.6 66-66 66S34 136.4 34 100 63.6 34 100 34c26.5 0 49.4 15.6 60 38.2V100h-42" 
        stroke="url(#gs-grad)" stroke-width="17" stroke-linecap="round" stroke-linejoin="round" fill="none"/>
  <!-- The S shape with flame/leaf accent -->
  <path d="M118 68c0 0-12-18-28-14s-18 16-10 24c8 8 28 10 30 22s-4 22-22 22c-12 0-20-6-22-10"
        stroke="url(#gs-grad)" stroke-width="14" stroke-linecap="round" stroke-linejoin="round" fill="none"/>
  <!-- Flame/leaf accent at top of S -->
  <path d="M102 38c0 0 6-12 14-14c0 0-2 10-4 16c2-2 8-6 12-6c0 0-6 10-12 16"
        fill="#C4956A" stroke="none" opacity="0.9"/>
</svg>
