<svg xmlns="http://www.w3.org/2000/svg" viewBox="0 0 120 120">
  <defs>
    <linearGradient id="brand" x1="0" y1="0" x2="1" y2="1">
      <stop offset="0%" stop-color="#C4956A"/>
      <stop offset="100%" stop-color="#D4A57A"/>
    </linearGradient>
  </defs>
  <!-- G circle outer -->
  <path d="M60 8 C29.3 8 4.5 32.8 4.5 63.5 C4.5 94.2 29.3 115 60 115 C90.7 115 112 94.2 112 63.5 L112 60 L68 60"
        fill="none" stroke="url(#brand)" stroke-width="9" stroke-linecap="round" stroke-linejoin="round"/>
  <!-- S curve with flame -->
  <path d="M72 28 C72 28 68 18 60 18 Q46 18 46 32 Q46 44 60 48 Q78 54 78 70 Q78 86 60 88 Q48 88 42 80"
        fill="none" stroke="url(#brand)" stroke-width="8.5" stroke-linecap="round" stroke-linejoin="round"/>
  <!-- Flame accent -->
  <path d="M68 16 Q74 6 80 4 Q76 14 74 20 Q80 14 86 12 Q80 22 72 28"
        fill="#C4956A" opacity="0.85"/>
</svg>
